<svg width="278" height="110" viewBox="0 0 278 110" fill="none" xmlns="http://www.w3.org/2000/svg">
<path d="M80.181 45.2519C78.2688 48.0152 80.0658 50.4262 81.8667 53.1754C83.736 56.0291 82.728 59.7503 79.939 62.2148C79.6985 62.3665 79.4918 62.5661 79.332 62.8013C79.1721 63.0364 79.0625 63.302 79.0099 63.5814C78.9573 63.8608 78.9629 64.1481 79.0263 64.4253C79.0898 64.7025 79.2097 64.9636 79.3786 65.1923C81.276 69.2027 79.9243 73.081 76.1409 75.4868C75.3709 75.998 74.775 76.7319 74.4329 77.5905C73.9192 79.2728 72.8315 80.7214 71.3593 81.6839C69.8871 82.6464 68.1238 83.0618 66.3768 82.8575C65.9667 82.876 65.5651 82.9812 65.1987 83.1661C64.8322 83.3511 64.509 83.6116 64.2506 83.9305C62.0788 86.9347 59.2428 87.5281 56.1393 85.3322C55.8198 85.0251 55.3932 84.8547 54.95 84.857C54.5068 84.8594 54.0821 85.0344 53.7659 85.3449C50.7705 87.5093 47.8228 86.8826 45.6326 83.9062C45.3687 83.5882 45.0408 83.3293 44.6702 83.1465C44.2996 82.9637 43.8946 82.861 43.4816 82.8452C41.7712 83.0698 40.0368 82.6737 38.5935 81.7287C37.1501 80.7838 36.0934 79.3526 35.6153 77.695C35.2796 76.8209 34.682 76.0718 33.9041 75.5505C29.8528 73.026 28.5416 69.0288 30.7227 64.7602C31.3393 63.5533 30.9875 63.0808 30.155 62.3517C29.2511 61.6575 28.5146 60.7692 28.0001 59.7522C27.4856 58.7352 27.2061 57.6157 27.1823 56.4762C27.1585 55.3367 27.391 54.2065 27.8627 53.1689C28.3343 52.1314 29.033 51.2131 29.9072 50.4818C30.3222 50.1893 30.6116 49.7509 30.7174 49.2544C30.8232 48.7578 30.7377 48.2395 30.478 47.8033C28.7451 43.5304 30.0118 40.0857 33.9029 37.5811C34.7147 37.0009 35.3268 36.1835 35.6553 35.2413C36.1426 33.6595 37.1736 32.3009 38.5659 31.4059C39.9583 30.5108 41.6222 30.137 43.2636 30.3504C43.7615 30.476 44.2876 30.4242 44.7514 30.2039C45.2153 29.9837 45.5879 29.6087 45.8052 29.1435C46.1701 28.4819 46.6757 27.9084 47.2864 27.4636C47.8971 27.0188 48.598 26.7134 49.3397 26.5691C50.0813 26.4247 50.8455 26.4449 51.5785 26.6282C52.3115 26.8115 52.9953 27.1534 53.5816 27.6299C53.7552 27.8121 53.9637 27.9575 54.1946 28.0574C54.4256 28.1573 54.6743 28.2097 54.926 28.2115C55.1776 28.2133 55.427 28.1643 55.6594 28.0676C55.8917 27.9709 56.1022 27.8285 56.2783 27.6487C59.1458 25.5888 62.121 26.289 64.2417 29.1612C64.5249 29.4985 64.8761 29.7721 65.2723 29.9643C65.6686 30.1565 66.101 30.2629 66.5411 30.2765C68.2907 30.0991 70.0465 30.5478 71.4964 31.543C72.9463 32.5381 73.9963 34.0152 74.4598 35.7115C74.8808 36.6131 75.5637 37.3669 76.4195 37.8746C77.66 38.6438 78.6664 39.738 79.3295 41.0384C79.9925 42.3389 80.287 43.796 80.181 45.2519Z" stroke="white" stroke-width="2" stroke-miterlimit="10"/>
<path d="M55 28.2048V84.86" stroke="white" stroke-width="2" stroke-miterlimit="10"/>
<path d="M46.8643 45.9269C46.8643 45.9269 52.8586 39.9004 55 47.9915" stroke="white" stroke-width="2" stroke-linecap="round" stroke-linejoin="round"/>
<path d="M63.1357 45.9269C63.1357 45.9269 57.1415 39.9004 55 47.9915" stroke="white" stroke-width="2" stroke-linecap="round" stroke-linejoin="round"/>
<path d="M67.408 41.3677C67.408 41.3677 71.4705 33.9014 63.1049 34.1612" stroke="white" stroke-width="2" stroke-linecap="round" stroke-linejoin="round"/>
<path d="M63.1357 65.5428C63.1357 65.5428 57.1415 71.5693 55 63.4781" stroke="white" stroke-width="2" stroke-linecap="round" stroke-linejoin="round"/>
<path d="M64.644 55.7658C64.644 55.7658 70.694 49.7952 72.7603 57.9057" stroke="white" stroke-width="2" stroke-linecap="round" stroke-linejoin="round"/>
<path d="M46.8643 65.5428C46.8643 65.5428 52.8586 71.5693 55 63.4781" stroke="white" stroke-width="2" stroke-linecap="round" stroke-linejoin="round"/>
<path d="M76.4195 37.8746C76.4195 37.8746 74.4972 35.835 68.3245 36.3328" stroke="white" stroke-width="2" stroke-linecap="round" stroke-linejoin="round"/>
<path d="M67.3182 71.1776C67.3182 71.1776 70.7005 78.9755 62.3911 77.973" stroke="white" stroke-width="2" stroke-linecap="round" stroke-linejoin="round"/>
<path d="M76.3584 75.3455C76.3584 75.3455 73.8884 77.3189 67.7845 76.2742" stroke="white" stroke-width="2" stroke-linecap="round" stroke-linejoin="round"/>
<path d="M42.9077 41.3677C42.9077 41.3677 38.8451 33.9014 47.2108 34.1612" stroke="white" stroke-width="2" stroke-linecap="round" stroke-linejoin="round"/>
<path d="M44.6112 55.7658C44.6112 55.7658 38.5612 49.7952 36.495 57.9057" stroke="white" stroke-width="2" stroke-linecap="round" stroke-linejoin="round"/>
<path d="M33.8204 37.6352C33.8204 37.6352 35.8182 35.835 41.9907 36.3327" stroke="white" stroke-width="2" stroke-linecap="round" stroke-linejoin="round"/>
<path d="M42.6098 71.1776C42.6098 71.1776 39.2274 78.9755 47.5368 77.973" stroke="white" stroke-width="2" stroke-linecap="round" stroke-linejoin="round"/>
<path d="M33.5702 75.3455C33.5702 75.3455 36.0401 77.3189 42.1441 76.2742" stroke="white" stroke-width="2" stroke-linecap="round" stroke-linejoin="round"/>
<path d="M114.12 70V40.8H121.96C124.467 40.8 126.453 41.48 127.92 42.84C129.413 44.1733 130.16 46 130.16 48.32C130.16 49.68 129.893 50.8667 129.36 51.88C128.827 52.8933 128.067 53.68 127.08 54.24C126.12 54.8 124.96 55.08 123.6 55.08V54.6C125.093 54.5733 126.373 54.8667 127.44 55.48C128.533 56.0667 129.373 56.92 129.96 58.04C130.573 59.1333 130.88 60.44 130.88 61.96C130.88 63.5867 130.533 65.0133 129.84 66.24C129.147 67.44 128.147 68.3733 126.84 69.04C125.56 69.68 124.04 70 122.28 70H114.12ZM116.72 67.6H122.12C124.013 67.6 125.507 67.0933 126.6 66.08C127.693 65.0667 128.24 63.68 128.24 61.92C128.24 60.16 127.693 58.7467 126.6 57.68C125.507 56.6133 124.013 56.08 122.12 56.08H116.72V67.6ZM116.72 53.76H121.92C123.68 53.76 125.053 53.2933 126.04 52.36C127.027 51.4 127.52 50.1067 127.52 48.48C127.52 46.8267 127.027 45.5333 126.04 44.6C125.053 43.6667 123.693 43.2 121.96 43.2H116.72V53.76ZM138.824 70V48H141.424V51.96H142.024L141.024 54.4C141.051 52.2667 141.611 50.6 142.704 49.4C143.824 48.2 145.371 47.6 147.344 47.6C149.691 47.6 151.544 48.32 152.904 49.76C154.264 51.2 154.944 53.16 154.944 55.64V56.88H152.184V55.76C152.184 53.8933 151.718 52.44 150.784 51.4C149.851 50.36 148.531 49.84 146.824 49.84C145.144 49.84 143.824 50.36 142.864 51.4C141.931 52.44 141.464 53.8933 141.464 55.76V70H138.824ZM168.449 70.4C166.155 70.4 164.329 69.8 162.969 68.6C161.635 67.4 160.969 65.8133 160.969 63.84C160.969 61.8667 161.609 60.3067 162.889 59.16C164.195 58.0133 165.915 57.44 168.049 57.44H175.289V55C175.289 53.4 174.835 52.16 173.929 51.28C173.049 50.4 171.782 49.96 170.129 49.96C168.635 49.96 167.395 50.3067 166.409 51C165.449 51.6933 164.889 52.6267 164.729 53.8H162.089C162.329 51.9333 163.182 50.44 164.649 49.32C166.142 48.1733 167.969 47.6 170.129 47.6C172.502 47.6 174.395 48.2667 175.809 49.6C177.222 50.9333 177.929 52.72 177.929 54.96V70H175.329V65.64H174.889L175.489 64.92C175.489 66.5733 174.849 67.9067 173.569 68.92C172.289 69.9067 170.582 70.4 168.449 70.4ZM169.129 68.2C170.969 68.2 172.449 67.7333 173.569 66.8C174.715 65.8667 175.289 64.6667 175.289 63.2V59.56H168.049C166.715 59.56 165.635 59.9333 164.809 60.68C164.009 61.4267 163.609 62.4133 163.609 63.64C163.609 65.0267 164.102 66.1333 165.089 66.96C166.102 67.7867 167.449 68.2 169.129 68.2ZM185.593 70V67.6H193.553V50.4H186.593V48H196.193V67.6H203.673V70H185.593ZM194.553 43.88C193.78 43.88 193.166 43.68 192.713 43.28C192.26 42.8533 192.033 42.28 192.033 41.56C192.033 40.84 192.26 40.2667 192.713 39.84C193.166 39.4133 193.78 39.2 194.553 39.2C195.326 39.2 195.94 39.4133 196.393 39.84C196.846 40.2667 197.073 40.84 197.073 41.56C197.073 42.28 196.846 42.8533 196.393 43.28C195.94 43.68 195.326 43.88 194.553 43.88ZM210.058 70V48H212.698V51.96H213.538L212.538 53.52C212.538 51.68 213.084 50.24 214.178 49.2C215.298 48.1333 216.804 47.6 218.698 47.6C220.884 47.6 222.631 48.2933 223.938 49.68C225.244 51.04 225.898 52.9067 225.898 55.28V70H223.258V55.6C223.258 53.7867 222.791 52.3867 221.858 51.4C220.924 50.3867 219.658 49.88 218.058 49.88C216.404 49.88 215.098 50.4 214.138 51.44C213.178 52.48 212.698 53.92 212.698 55.76V70H210.058ZM241.962 70.4C240.282 70.4 238.829 70.0667 237.602 69.4C236.375 68.7333 235.429 67.7867 234.762 66.56C234.122 65.3333 233.802 63.8933 233.802 62.24V55.76C233.802 54.1067 234.122 52.68 234.762 51.48C235.429 50.2533 236.375 49.3067 237.602 48.64C238.829 47.9467 240.282 47.6 241.962 47.6C243.615 47.6 245.042 47.9467 246.242 48.64C247.469 49.3067 248.402 50.2533 249.042 51.48C249.709 52.68 250.042 54.1067 250.042 55.76V59.6H236.402V62.24C236.402 64.08 236.882 65.52 237.842 66.56C238.802 67.6 240.175 68.12 241.962 68.12C243.402 68.12 244.575 67.8133 245.482 67.2C246.415 66.56 247.042 65.6667 247.362 64.52H250.002C249.655 66.3333 248.762 67.7733 247.322 68.84C245.909 69.88 244.122 70.4 241.962 70.4ZM247.442 57.8V55.76C247.442 53.92 246.962 52.48 246.002 51.44C245.069 50.3733 243.722 49.84 241.962 49.84C240.175 49.84 238.802 50.36 237.842 51.4C236.882 52.44 236.402 53.8933 236.402 55.76V57.48H247.802L247.442 57.8ZM258.746 70V48H261.346V51.96H261.946L260.946 54.4C260.973 52.2667 261.533 50.6 262.626 49.4C263.746 48.2 265.293 47.6 267.266 47.6C269.613 47.6 271.466 48.32 272.826 49.76C274.186 51.2 274.866 53.16 274.866 55.64V56.88H272.106V55.76C272.106 53.8933 271.64 52.44 270.706 51.4C269.773 50.36 268.453 49.84 266.746 49.84C265.066 49.84 263.746 50.36 262.786 51.4C261.853 52.44 261.386 53.8933 261.386 55.76V70H258.746Z" fill="white"/>
</svg>
